<svg width="100" height="100" viewBox="0 0 100 100" fill="none" xmlns="http://www.w3.org/2000/svg">
<path d="M12.6668 17.8916C12.6037 17.5179 12.6446 17.1341 12.7849 16.7821C12.9253 16.4301 13.1597 16.1235 13.4626 15.8958C16.3626 13.8333 26.3084 8.33325 50.0001 8.33325C73.6918 8.33325 83.6376 13.8333 86.5376 15.8958C86.8412 16.123 87.0765 16.4294 87.2176 16.7814C87.3587 17.1335 87.4002 17.5175 87.3376 17.8916L80.2543 70.9916C79.9153 73.5331 78.9946 75.9621 77.5637 78.0896C76.1328 80.2172 74.2303 81.9859 72.0043 83.2583L70.6709 84.0208C64.3756 87.6177 57.2506 89.5097 50.0001 89.5097C42.7496 89.5097 35.6246 87.6177 29.3293 84.0208L27.9959 83.2583C25.7699 81.9859 23.8674 80.2172 22.4365 78.0896C21.0056 75.9621 20.0849 73.5331 19.7459 70.9916L12.6668 17.8916Z" stroke="#7a7988" stroke-width="6.25"/>
<path d="M12.5 20.8333C23.2125 31.9458 76.7875 31.9458 87.5 20.8333" stroke="#7a7988" stroke-width="6.25"/>
</svg>
