<svg width="108" height="108" viewBox="0 0 108 108" fill="none" xmlns="http://www.w3.org/2000/svg">
<path d="M46.2447 73.6636L27.0818 54.4962L33.4679 48.11L46.2447 60.8823L71.7893 35.3333L78.1799 41.7239L46.2447 73.6546V73.6636Z" fill="#A18AFF"/>
<path fill-rule="evenodd" clip-rule="evenodd" d="M4.5 54.18C4.5 26.7431 26.7431 4.5 54.18 4.5C81.6169 4.5 103.86 26.7431 103.86 54.18C103.86 81.6169 81.6169 103.86 54.18 103.86C26.7431 103.86 4.5 81.6169 4.5 54.18ZM54.18 94.8273C48.8421 94.8273 43.5565 93.7759 38.625 91.7332C33.6934 89.6905 29.2125 86.6964 25.438 82.922C21.6636 79.1475 18.6695 74.6666 16.6268 69.735C14.5841 64.8035 13.5327 59.5179 13.5327 54.18C13.5327 48.8421 14.5841 43.5565 16.6268 38.625C18.6695 33.6934 21.6636 29.2125 25.438 25.438C29.2125 21.6636 33.6934 18.6695 38.625 16.6268C43.5565 14.5841 48.8421 13.5327 54.18 13.5327C64.9603 13.5327 75.2991 17.8152 82.922 25.438C90.5448 33.0609 94.8273 43.3997 94.8273 54.18C94.8273 64.9603 90.5448 75.2991 82.922 82.922C75.2991 90.5448 64.9603 94.8273 54.18 94.8273Z" fill="#A18AFF"/>
</svg>
