<svg width="100" height="100" viewBox="0 0 100 100" fill="none" xmlns="http://www.w3.org/2000/svg">
<g clip-path="url(#clip0_3118_23434)">
<path d="M84.3126 23.6916C86.1126 18.7125 81.2876 13.8875 76.3084 15.6916L15.4543 37.7C10.4584 39.5083 9.85426 46.325 14.4501 48.9875L33.8751 60.2333L51.2209 42.8875C52.0068 42.1285 53.0593 41.7085 54.1518 41.718C55.2442 41.7275 56.2893 42.1657 57.0618 42.9382C57.8344 43.7108 58.2726 44.7558 58.2821 45.8483C58.2916 46.9408 57.8716 47.9933 57.1126 48.7791L39.7668 66.125L51.0168 85.55C53.6751 90.1458 60.4918 89.5375 62.3001 84.5458L84.3126 23.6916Z" fill="#A18AFF"/>
</g>
<defs>
<clipPath id="clip0_3118_23434">
<rect width="100" height="100" fill="white"/>
</clipPath>
</defs>
</svg>
